# xmcd
#
# Track frame offsets: 
#        150
#        12625
#        27282
#        41122
#        52717
#        68840
#        86512
#        96577
#        112060
#        128630
#        143275
#        153197
#        163972
#        177262
#        189897
#        201685
#        211375
#        221710
#        239265
#        255105
#        266317
#        279117
#        290327
#
# Disc length: 4048 seconds
#
# Revision: 0
# Processed by: cddbd v1.5.2PL0 Copyright (c) Steve Scherf et al.
# Submitted via: ExactAudioCopy v0.99pb4
#
DISCID=460fce17
DTITLE=Various Artist - Funky Strut
DYEAR=1971
DGENRE=Soul
TTITLE0=Little Johnny Taylor and Ted Taylor - Funky Ghetto
TTITLE1=Bobby Rush - It's Alright
TTITLE2=Bill Coday - I'm Back To Collect
TTITLE3=Lowell Fulson - This Feeling
TTITLE4=Little Johnny Taylor and Ted Taylor - As Long As I Don't See You
TTITLE5=King Curtis - Piping Hot
TTITLE6=Jerry McCain - Juicy Lucy
TTITLE7=Bobby Patterson - This Whole Funky World Is A Ghetto
TTITLE8=Scotty and The Rib Tips - Big Leg Woman
TTITLE9=Scotty and The Rib Tips - Going To My Baby's Place
TTITLE10=Scotty and The Rib Tips - All Proud Races
TTITLE11=Bobby Patterson - How Do You Spell Louve?
TTITLE12=Koko Taylor - Don't Put Your Hands On Me
TTITLE13=Alex Williams And The Mustangs - Moon Dust
TTITLE14=Taylor, Ted - Honey Lou
TTITLE15=The Carter Brothers - Roast Possum
TTITLE16=Betty Scott and The Del-Vetts - Down,Down,Down
TTITLE17=A.C. REED&THE Spark Plugs - Moving Out Of The Ghetto
TTITLE18=Fontella Bass - Homewrecker
TTITLE19=African Music Machine - A Girl In France
TTITLE20=Taylor, Ted - Something Strange Is Going On In My House
TTITLE21=Bobby Rush - Bowlegged Woman, Knock-Kneed Man Part.1
TTITLE22=Ted Taylor - Can't Take No More
EXTD=
EXTT0=
EXTT1=
EXTT2=
EXTT3=
EXTT4=
EXTT5=
EXTT6=
EXTT7=
EXTT8=
EXTT9=
EXTT10=
EXTT11=
EXTT12=
EXTT13=
EXTT14=
EXTT15=
EXTT16=
EXTT17=
EXTT18=
EXTT19=
EXTT20=
EXTT21=
EXTT22=
PLAYORDER=
